# AST/ASF file generated using VICON BodyLanguage
# -----------------------------------------------
:version 1.10
:name VICON
:units
  mass 1.0
  length 0.45
  angle deg
:documentation
   .ast/.asf automatically generated from VICON data using
   VICON BodyBuilder and BodyLanguage model FoxedUp or BRILLIANT.MOD
:root
   order TX TY TZ RX RY RZ
   axis XYZ
   position 0 0 0  
   orientation 0 0 0 
:bonedata
  begin
     id 1 
     name lhipjoint
     direction 0.577973 -0.728611 0.367523 
     length 2.48544 
     axis 0 0 0  XYZ
  end
  begin
     id 2 
     name lfemur
     direction 0.34202 -0.939693 0  
     length 7.1921  
     axis 0 0 20  XYZ
    dof rx ry rz
    limits (-160.0 20.0)
           (-70.0 70.0)
           (-60.0 70.0)
  end
  begin
     id 3 
     name ltibia
     direction 0.34202 -0.939693 0   
     length 7.71059   
     axis 0 0 20   XYZ
    dof rx
    limits (-10.0 170.0)
  end
  begin
     id 4 
     name lfoot
     direction 0.089538 -0.246004 0.965124   
     length 2.19909   
     axis -90 7.62852e-016 20   XYZ
    dof rx rz
    limits (-45.0 90.0)
           (-70.0 20.0)
  end
  begin
     id 5 
     name ltoes
     direction 1.53544e-011 -4.21829e-011 1   
     length 1.10116   
     axis -90 7.62852e-016 20   XYZ
    dof rx
    limits (-90.0 20.0)
  end
  begin
     id 6 
     name rhipjoint
     direction -0.554414 -0.743062 0.374812   
     length 2.4371  
     axis 0 0 0  XYZ 
  end
  begin
     id 7 
     name rfemur
     direction -0.34202 -0.939693 0   
     length 7.47254   
     axis 0 0 -20   XYZ
    dof rx ry rz
    limits (-160.0 20.0)
           (-70.0 70.0)
           (-70.0 60.0)
  end
  begin
     id 8 
     name rtibia
     direction -0.34202 -0.939693 0   
     length 7.65855   
     axis 0 0 -20   XYZ
    dof rx
    limits (-10.0 170.0)
 end
 begin
     id 9 
     name rfoot
     direction -0.133779 -0.367555 0.92033   
     length 2.43006  
     axis -90 -7.62852e-016 -20   XYZ
    dof rx rz
    limits (-45.0 90.0)
           (-20.0 70.0)
  end
  begin
     id 10 
     name rtoes
     direction -1.53563e-011 -4.21889e-011 1   
     length 1.19625   
     axis -90 -7.62852e-016 -20   XYZ
    dof rx
    limits (-90.0 20.0)
  end
  begin
     id 11 
     name lowerback
     direction 0.0249066 0.998043 -0.0573585   
     length 2.08485   
     axis 0 0 0   XYZ
    dof rx ry rz
    limits (-20.0 45.0)
           (-30.0 30.0)
           (-30.0 30.0)
  end
  begin
     id 12 
     name upperback
     direction 0.0237884 0.999673 0.00943178   
     length 2.08515   
     axis 0 0 0   XYZ
    dof rx ry rz
    limits (-20.0 45.0)
           (-30.0 30.0)
           (-30.0 30.0)
  end
  begin
     id 13 
     name thorax
     direction 0.0106671 0.999301 0.0358174   
     length 2.09037   
     axis 0 0 0   XYZ
    dof rx ry rz
    limits (-20.0 45.0)
           (-30.0 30.0)
           (-30.0 30.0)
  end
  begin
     id 14 
     name lowerneck
     direction -0.0580016 0.987052 0.149546   
     length 1.84454   
     axis 0 0 0   XYZ
    dof rx ry rz
    limits (-20.0 45.0)
           (-30.0 30.0)
           (-30.0 30.0)
  end
  begin
     id 15 
     name upperneck
     direction 0.079456 0.981963 -0.171567   
     length 1.88141   
     axis 0 0 0   XYZ
    dof rx ry rz
    limits (-20.0 45.0)
           (-30.0 30.0)
           (-30.0 30.0)
  end
  begin
     id 16
     name head
     direction 0.0262167 0.9967 -0.0768276  
     length 1.89541  
     axis 0 0 0   XYZ
    dof rx ry rz
    limits (-20.0 45.0)
           (-30.0 30.0)
           (-30.0 30.0)
  end
  begin
     id 17 
     name lclavicle
     direction 0.946135 0.322134 -0.0325326  
     length 3.949  
     axis 0 0 0   XYZ
    dof ry rz
    limits (-20.0 10.0)
           (0.0 20.0)
  end
  begin
     id 18 
     name lhumerus
     direction 1 -4.48964e-011 1.94005e-028   
     length 5.10995   
     axis 180 -30 -90   XYZ
    dof rx ry rz
    limits (-60.0 90.0)
           (-90.0 90.0)
           (-90.0 90.0)
  end
  begin
     id 19
     name lradius
     direction 1 -4.48976e-011 2.87852e-027   
     length 3.21207   
     axis 180 -30 -90   XYZ
    dof rx
    limits (-10.0 170.0)
  end
  begin
     id 20
     name lwrist
     direction 1 -4.48963e-011 1.9975e-027   
     length 1.60604   
     axis 2.96054e-016 90 90   XYZ
    dof ry
    limits (-180.0 0.0)
 end
  begin
     id 21 
     name lhand
     direction 1 -4.48919e-011 4.00227e-027   
     length 0.63349   
     axis -2.5488e-015 90 90   XYZ
    dof rx rz
    limits (-90.0 90.0)
           (-45.0 45.0)
  end
  begin
     id 22 
     name lfingers
     direction 1 -4.49037e-011 7.9652e-027   
     length 0.510736   
     axis -5.0975e-015 90 90   XYZ
    dof rx
    limits (0.0 90.0)
  end
  begin
     id 23
     name lthumb
     direction 0.707107 -6.34922e-011 0.707107   
     length 0.733318   
     axis -90 45 -4.48553e-014   XYZ
    dof rx rz
    limits (-45.0 45.0)
           (-45.0 45.0)
  end
  begin
     id 24 
     name rclavicle
     direction -0.940085 0.328911 -0.0897654   
     length 3.93848  
     axis 0 0 0   XYZ 
    dof ry rz
    limits (-10.0 20.0)
           (-20.0 0.0)
  end
  begin
     id 25 
     name rhumerus
     direction -1 -4.48958e-011 3.02044e-027  
     length 5.25109   
     axis 180 30 90   XYZ
    dof rx ry rz
    limits (-90.0 60.0)
           (-90.0 90.0)
           (-90.0 90.0)
  end
  begin
     id 26 
     name rradius
     direction -1 -4.4897e-011 9.78352e-028   
     length 3.28364   
     axis 180 30 90   XYZ
    dof rx
    limits (-10.0 170.0)
  end
  begin
     id 27 
     name rwrist
     direction -1 -4.48943e-011 1.99918e-027   
     length 1.64182   
     axis 2.96054e-016 -90 -90   XYZ
    dof ry
    limits (-180.0 0.0)
  end
  begin
     id 28
     name rhand
     direction -1 -4.49024e-011 3.98478e-027   
     length 0.599745   
     axis -2.5488e-015 -90 -90   XYZ
    dof rx rz
    limits (-90.0 90.0)
           (-45.0 45.0)
  end
  begin
     id 29
     name rfingers
     direction -1 -4.48914e-011 8.00621e-027   
     length 0.48353   
     axis -5.0975e-015 -90 -90   XYZ
    dof rx
    limits (0.0 90.0)
  end
  begin
     id 30
     name rthumb
     direction -0.707107 -6.34992e-011 0.707107   
     length 0.694255   
     axis -90 -45 4.48553e-014   XYZ
    dof rx rz
    limits (-45.0 45.0)
           (-45.0 45.0)
  end
:hierarchy
  begin
    root lhipjoint rhipjoint lowerback
    lhipjoint lfemur
    lfemur ltibia
    ltibia lfoot
    lfoot ltoes
    rhipjoint rfemur
    rfemur rtibia
    rtibia rfoot
    rfoot rtoes
    lowerback upperback
    upperback thorax
    thorax lowerneck lclavicle rclavicle
    lowerneck upperneck
    upperneck head
    lclavicle lhumerus
    lhumerus lradius
    lradius lwrist
    lwrist lhand lthumb
    lhand lfingers
    rclavicle rhumerus
    rhumerus rradius
    rradius rwrist
    rwrist rhand rthumb
    rhand rfingers
  end

#!OML:ASF E:\CV Data\Top Level 1\Subject 1\Session 1\player.ASF
:FULLY-SPECIFIED
:DEGREES
207
root 12.6587 16.3588 -10.091 0.0959824 -69.9679 7.67793
lowerback 6.16433 0.437873 -3.05817
upperback -0.153041 0.392208 0.943962
thorax -3.64505 0.258286 2.65926
lowerneck -15.7366 7.35038 -3.48106
upperneck 23.3252 9.99106 4.16913
head 9.54778 4.74342 3.24683
rclavicle 1.30204e-014 9.54166e-015
rhumerus -38.1383 41.1589 -105.331
rradius 103.742
rwrist 5.3186
rhand -40.8817 35.6665
rfingers 7.12502
rthumb -13.8176 6.1454
lclavicle 1.30204e-014 9.54166e-015
lhumerus -40.6373 -37.7509 112.213
lradius 99.4933
lwrist -16.3511
lhand -42.2864 4.32592
lfingers 7.12502
lthumb -15.1711 33.7498
rfemur -50.736 -3.69079 18.3969
rtibia 46.9504
rfoot -2.78721 -13.0887
rtoes 18.997
lfemur 3.96822 4.16696 -25.1522
ltibia 22.7261
lfoot -26.7022 11.3758
ltoes -11.7718
208
root 12.6851 16.3581 -10.0991 0.00577722 -69.7384 7.71743
lowerback 6.11023 0.441615 -3.23107
upperback -0.186963 0.384897 0.902327
thorax -3.65037 0.258222 2.71429
lowerneck -15.7342 7.26856 -3.49583
upperneck 23.4297 9.8552 4.26677
head 9.58334 4.68693 3.27144
rclavicle 7.85199e-015 1.39149e-014
rhumerus -38.5814 41.052 -105.702
rradius 103.706
rwrist 5.29732
rhand -41.1361 36.007
rfingers 7.12502
rthumb -14.0628 6.50278
lclavicle 7.85199e-015 1.39149e-014
lhumerus -40.9489 -37.7067 112.387
lradius 99.4708
lwrist -16.2303
lhand -42.274 4.03134
lfingers 7.12502
lthumb -15.1591 33.4561
rfemur -50.7205 -3.70272 18.2202
rtibia 46.9144
rfoot -2.64693 -13.2176
rtoes 19.0112
lfemur 3.85159 4.15495 -25.1305
ltibia 22.8604
lfoot -26.8295 11.2292
ltoes -11.6382
209
root 12.7077 16.3601 -10.1072 -0.220516 -69.5268 7.92026
lowerback 6.02836 0.441437 -3.46371
upperback -0.223134 0.368375 0.838318
thorax -3.64201 0.254323 2.78066
lowerneck -15.7262 7.20114 -3.49066
upperneck 23.5233 9.73519 4.35846
head 9.61496 4.63925 3.29198
rclavicle -2.98177e-014 -2.10712e-014
rhumerus -38.9877 40.9649 -106.052
rradius 103.668
rwrist 5.32472
rhand -41.506 36.4565
rfingers 7.12502
rthumb -14.4192 6.97735
lclavicle -2.98177e-014 -2.10712e-014
lhumerus -41.2294 -37.658 112.546
lradius 99.4398
lwrist -16.1847
lhand -42.3277 3.77523
lfingers 7.12502
lthumb -15.2108 33.1961
rfemur -50.7138 -3.73568 18.0113
rtibia 46.8742
rfoot -2.50333 -13.339
rtoes 18.9962
lfemur 3.71513 4.22005 -25.1355
ltibia 22.9972
lfoot -26.9389 10.9027
ltoes -11.419
210
root 12.7261 16.3635 -10.1147 -0.562484 -69.3477 8.25629
lowerback 5.91511 0.443797 -3.73272
upperback -0.256329 0.353321 0.749687
thorax -3.61306 0.251151 2.84184
lowerneck -15.7092 7.14144 -3.4861
upperneck 23.6039 9.62132 4.46646
head 9.63914 4.59681 3.31779
rclavicle 1.6201e-014 -8.74653e-015
rhumerus -39.347 40.888 -106.377
rradius 103.617
rwrist 5.41441
rhand -41.8037 36.8685
rfingers 7.12502
rthumb -14.706 7.41006
lclavicle 1.6201e-014 -8.74653e-015
lhumerus -41.4867 -37.6402 112.684
lradius 99.4055
lwrist -16.1906
lhand -42.4008 3.5762
lfingers 7.12502
lthumb -15.2813 32.9917
rfemur -50.7147 -3.78428 17.7841
rtibia 46.8392
rfoot -2.35702 -13.439
rtoes 18.9368
lfemur 3.59343 4.35033 -25.1768
ltibia 23.1022
lfoot -27.0139 10.5034
ltoes -11.24
211
root 12.7409 16.3678 -10.1216 -0.943696 -69.1964 8.63908
lowerback 5.77974 0.445034 -4.01244
upperback -0.286014 0.337274 0.652855
thorax -3.56792 0.247136 2.90061
lowerneck -15.6916 7.08561 -3.50676
upperneck 23.6798 9.51221 4.60239
head 9.65832 4.55794 3.35733
rclavicle -2.76808e-014 -2.38542e-015
rhumerus -39.6577 40.8318 -106.664
rradius 103.556
rwrist 5.54442
rhand -42.0069 37.2077
rfingers 7.12502
rthumb -14.9018 7.76372
lclavicle -2.76808e-014 -2.38542e-015
lhumerus -41.716 -37.6452 112.808
lradius 99.3632
lwrist -16.2314
lhand -42.5694 3.50859
lfingers 7.12502
lthumb -15.4436 32.9116
rfemur -50.7182 -3.84831 17.5694
rtibia 46.8104
rfoot -2.21124 -13.5151
rtoes 18.8498
lfemur 3.50754 4.52554 -25.2332
ltibia 23.1535
lfoot -27.0458 10.1125
ltoes -11.207
212
root 12.7524 16.3723 -10.1271 -1.27676 -69.0836 8.96047
lowerback 5.63631 0.442459 -4.24894
upperback -0.311267 0.320239 0.555261
thorax -3.51315 0.241413 2.93426
lowerneck -15.685 7.03685 -3.53803
upperneck 23.763 9.41079 4.75853
head 9.68019 4.52395 3.40725
rclavicle -4.79071e-014 -6.36111e-015
rhumerus -39.9345 40.8063 -106.925
rradius 103.497
rwrist 5.68876
rhand -42.0439 37.3906
rfingers 7.12502
rthumb -14.9375 7.94923
lclavicle -4.79071e-014 -6.36111e-015
lhumerus -41.9225 -37.659 112.919
lradius 99.3205
lwrist -16.2716
lhand -42.7285 3.53068
lfingers 7.12502
lthumb -15.5968 32.9218
rfemur -50.7055 -3.9141 17.4035
rtibia 46.7833
rfoot -2.0688 -13.5649
rtoes 18.7309
lfemur 3.48384 4.66359 -25.293
ltibia 23.1409
lfoot -27.0234 9.8507
ltoes -11.3183
213
root 12.7612 16.3774 -10.1309 -1.49612 -69.0097 9.14089
lowerback 5.504 0.438491 -4.40646
upperback -0.335057 0.307008 0.463939
thorax -3.46284 0.23616 2.92954
lowerneck -15.6771 6.98889 -3.60149
upperneck 23.8504 9.31089 4.94485
head 9.69981 4.49134 3.47288
rclavicle -3.95085e-014 -1.39149e-014
rhumerus -40.1809 40.7938 -107.159
rradius 103.447
rwrist 5.82105
rhand -41.9227 37.4444
rfingers 7.12502
rthumb -14.8207 7.99437
lclavicle -3.95085e-014 -1.39149e-014
lhumerus -42.1161 -37.6888 113.02
lradius 99.2917
lwrist -16.2717
lhand -42.7619 3.50881
lfingers 7.12502
lthumb -15.629 32.8975
rfemur -50.6595 -3.9704 17.3089
rtibia 46.7476
rfoot -1.93154 -13.5888
rtoes 18.589
lfemur 3.52564 4.73354 -25.3329
ltibia 23.0745
lfoot -26.9588 9.73592
ltoes -11.4876
214
root 12.7678 16.383 -10.1328 -1.58865 -68.9735 9.15851
lowerback 5.39694 0.432883 -4.47134
upperback -0.358968 0.296972 0.37708
thorax -3.42648 0.231115 2.87695
lowerneck -15.6735 6.94413 -3.67254
upperneck 23.9492 9.21343 5.14567
head 9.72318 4.46057 3.54583
rclavicle 7.54885e-014 0
rhumerus -40.4018 40.7848 -107.374
rradius 103.417
rwrist 5.92321
rhand -41.7189 37.4194
rfingers 7.12502
rthumb -14.6244 7.95509
lclavicle 7.54885e-014 0
lhumerus -42.3005 -37.7235 113.117
lradius 99.2833
lwrist -16.2175
lhand -42.7796 3.49661
lfingers 7.12502
lthumb -15.6461 32.8839
rfemur -50.5694 -4.01453 17.2869
rtibia 46.6982
rfoot -1.7986 -13.5773
rtoes 18.4254
lfemur 3.63199 4.70888 -25.3502
ltibia 22.9678
lfoot -26.8603 9.77767
ltoes -11.632
215
root 12.7724 16.3893 -10.1329 -1.53734 -68.9738 9.00029
lowerback 5.31984 0.423462 -4.44894
upperback -0.38938 0.286445 0.302292
thorax -3.41314 0.224997 2.78776
lowerneck -15.6667 6.90597 -3.75089
upperneck 24.0616 9.12532 5.3505
head 9.7499 4.43352 3.62301
rclavicle -5.71506e-014 1.98785e-015
rhumerus -40.6163 40.786 -107.573
rradius 103.424
rwrist 5.98418
rhand -41.5085 37.383
rfingers 7.12502
rthumb -14.4216 7.90404
lclavicle -5.71506e-014 1.98785e-015
lhumerus -42.474 -37.7436 113.209
lradius 99.3064
lwrist -16.1088
lhand -42.8046 3.50794
lfingers 7.12502
lthumb -15.6702 32.8934
rfemur -50.439 -4.03653 17.3353
rtibia 46.6362
rfoot -1.67715 -13.5323
rtoes 18.2573
lfemur 3.78428 4.59348 -25.3343
ltibia 22.8377
lfoot -26.7445 9.93322
ltoes -11.6317
216
root 12.7752 16.396 -10.1319 -1.40077 -68.9975 8.74071
lowerback 5.26649 0.409881 -4.37473
upperback -0.430267 0.272545 0.234863
thorax -3.42348 0.217029 2.6773
lowerneck -15.655 6.87428 -3.83335
upperneck 24.1885 9.04705 5.55296
head 9.78051 4.40988 3.70178
rclavicle -2.58917e-014 -5.76476e-015
rhumerus -40.8212 40.7872 -107.751
rradius 103.469
rwrist 6.02454
rhand -41.3531 37.3939
rfingers 7.12502
rthumb -14.2719 7.9043
lclavicle -2.58917e-014 -5.76476e-015
lhumerus -42.644 -37.7612 113.304
lradius 99.3781
lwrist -15.9629
lhand -42.8927 3.56642
lfingers 7.12502
lthumb -15.7551 32.9452
rfemur -50.287 -4.03924 17.4185
rtibia 46.5734
rfoot -1.56984 -13.4523
rtoes 18.0738
lfemur 3.96131 4.39497 -25.3067
ltibia 22.6956
lfoot -26.6187 10.1685
ltoes -11.4492
217
root 12.776 16.402 -10.1305 -1.23159 -69.0418 8.45024
lowerback 5.22488 0.389652 -4.29341
upperback -0.484254 0.24953 0.173314
thorax -3.45337 0.205055 2.56968
lowerneck -15.6487 6.85358 -3.90386
upperneck 24.3345 8.98427 5.74055
head 9.81978 4.39209 3.77674
rclavicle 6.01324e-015 7.95139e-016
rhumerus -41.0192 40.801 -107.906
rradius 103.558
rwrist 6.06343
rhand -41.3304 37.5052
rfingers 7.12502
rthumb -14.25 8.01408
lclavicle 6.01324e-015 7.95139e-016
lhumerus -42.7963 -37.7581 113.396
lradius 99.4925
lwrist -15.8152
lhand -43.0456 3.61221
lfingers 7.12502
lthumb -15.9023 32.9793
rfemur -50.1396 -4.01884 17.507
rtibia 46.527
rfoot -1.48467 -13.3384
rtoes 17.8988
lfemur 4.14495 4.15696 -25.2815
ltibia 22.5515
lfoot -26.4935 10.4605
ltoes -11.2102
218
root 12.7746 16.4068 -10.129 -1.06214 -69.0995 8.17738
lowerback 5.17972 0.364116 -4.2287
upperback -0.555077 0.218327 0.117114
thorax -3.49834 0.189898 2.47762
lowerneck -15.6419 6.84125 -3.96899
upperneck 24.493 8.93481 5.91371
head 9.864 4.37882 3.84821
rclavicle 2.13694e-014 7.55382e-015
rhumerus -41.2115 40.8278 -108.026
rradius 103.692
rwrist 6.13407
rhand -41.3095 37.6295
rfingers 7.12502
rthumb -14.2298 8.13699
lclavicle 2.13694e-014 7.55382e-015
lhumerus -42.9335 -37.7501 113.495
lradius 99.6452
lwrist -15.6949
lhand -43.1776 3.57148
lfingers 7.12502
lthumb -16.0294 32.9284
rfemur -50.0203 -3.97738 17.5803
rtibia 46.5144
rfoot -1.42965 -13.1923
rtoes 17.7302
lfemur 4.31708 3.90458 -25.2675
ltibia 22.4124
lfoot -26.3762 10.7779
ltoes -10.9365
219
root 12.7708 16.4101 -10.1278 -0.935126 -69.1643 7.9747
lowerback 5.12249 0.331222 -4.21111
upperback -0.641327 0.174578 0.0642383
thorax -3.552 0.169788 2.41651
lowerneck -15.6383 6.8381 -4.02556
upperneck 24.6598 8.90053 6.06779
head 9.91265 4.37079 3.91428
rclavicle 8.50301e-014 -3.97569e-015
rhumerus -41.3843 40.877 -108.105
rradius 103.857
rwrist 6.27087
rhand -41.4093 37.857
rfingers 7.12502
rthumb -14.3261 8.37125
lclavicle 8.50301e-014 -3.97569e-015
lhumerus -43.0476 -37.7521 113.592
lradius 99.8315
lwrist -15.6326
lhand -43.2804 3.39704
lfingers 7.12502
lthumb -16.1284 32.7459
rfemur -49.9435 -3.91921 17.619
rtibia 46.5477
rfoot -1.40455 -13.0168
rtoes 17.5652
lfemur 4.46697 3.6641 -25.2746
ltibia 22.2852
lfoot -26.2773 11.0911
ltoes -10.6583
220
root 12.7644 16.4116 -10.1272 -0.821903 -69.2354 7.81784
lowerback 5.04612 0.290264 -4.22968
upperback -0.744408 0.118423 0.0166855
thorax -3.61173 0.144631 2.38222
lowerneck -15.6472 6.84461 -4.06162
upperneck 24.837 8.88031 6.19902
head 9.96913 4.3681 3.97221
rclavicle -4.86774e-014 8.54774e-015
rhumerus -41.5386 40.9595 -108.138
rradius 104.057
rwrist 6.48026
rhand -41.5798 38.1357
rfingers 7.12502
rthumb -14.4904 8.66165
lclavicle -4.86774e-014 8.54774e-015
lhumerus -43.1279 -37.7505 113.691
lradius 100.032
lwrist -15.6609
lhand -43.4311 3.20039
lfingers 7.12502
lthumb -16.2735 32.5375
rfemur -49.9191 -3.84072 17.6327
rtibia 46.6319
rfoot -1.39463 -12.8069
rtoes 17.346
lfemur 4.58389 3.47988 -25.2789
ltibia 22.1752
lfoot -26.2092 11.3586
ltoes -10.4108
221
root 12.7556 16.4118 -10.1271 -0.727312 -69.3101 7.71047
lowerback 4.94843 0.240706 -4.27625
upperback -0.860999 0.0495597 -0.0325993
thorax -3.67272 0.113917 2.36285
lowerneck -15.6486 6.85673 -4.09082
upperneck 25.0007 8.86886 6.31856
head 10.0201 4.36904 4.02512
rclavicle 2.33448e-014 -3.67752e-015
rhumerus -41.6465 41.064 -108.126
rradius 104.274
rwrist 6.76408
rhand -41.7909 38.4751
rfingers 7.12502
rthumb -14.6937 9.01576
lclavicle 2.33448e-014 -3.67752e-015
lhumerus -43.177 -37.7847 113.782
lradius 100.249
lwrist -15.7559
lhand -43.4077 2.82629
lfingers 7.12502
lthumb -16.251 32.1652
rfemur -49.944 -3.74399 17.6183
rtibia 46.7651
rfoot -1.39783 -12.5598
rtoes 17.0379
lfemur 4.6661 3.33756 -25.2818
ltibia 22.0872
lfoot -26.1785 11.5627
ltoes -10.0854
